<svg width="24" height="24" viewBox="0 0 24 24" fill="none" xmlns="http://www.w3.org/2000/svg">
<path fill-rule="evenodd" clip-rule="evenodd" d="M20 12C20 11.8527 19.9398 11.7114 19.8326 11.6072C19.7255 11.503 19.5802 11.4445 19.4286 11.4445H5.95175L9.5481 7.94946C9.60122 7.89781 9.64336 7.8365 9.67211 7.76902C9.70087 7.70154 9.71566 7.62922 9.71566 7.55618C9.71566 7.48314 9.70087 7.41082 9.67211 7.34334C9.64336 7.27586 9.60122 7.21455 9.5481 7.1629C9.49497 7.11125 9.4319 7.07029 9.36249 7.04234C9.29308 7.01439 9.21868 7 9.14355 7C9.06842 7 8.99402 7.01439 8.92461 7.04234C8.8552 7.07029 8.79213 7.11125 8.739 7.1629L4.16787 11.6067C4.11466 11.6583 4.07244 11.7196 4.04363 11.7871C4.01483 11.8546 4 11.9269 4 12C4 12.0731 4.01483 12.1454 4.04363 12.2129C4.07244 12.2804 4.11466 12.3417 4.16787 12.3933L8.739 16.8371C8.79213 16.8887 8.8552 16.9297 8.92461 16.9577C8.99402 16.9856 9.06842 17 9.14355 17C9.21868 17 9.29308 16.9856 9.36249 16.9577C9.4319 16.9297 9.49497 16.8887 9.5481 16.8371C9.60122 16.7855 9.64336 16.7241 9.67211 16.6567C9.70087 16.5892 9.71566 16.5169 9.71566 16.4438C9.71566 16.3708 9.70087 16.2985 9.67211 16.231C9.64336 16.1635 9.60122 16.1022 9.5481 16.0505L5.95175 12.5555H19.4286C19.5802 12.5555 19.7255 12.497 19.8326 12.3928C19.9398 12.2886 20 12.1473 20 12Z" fill="#7B8C98"/>
</svg>
