<svg width="14" height="13" viewBox="0 0 14 13" fill="none" xmlns="http://www.w3.org/2000/svg">
<g clip-path="url(#clip0_1119_4)">
<path d="M0.828532 2.47814C1.03797 1.99319 1.33996 1.55374 1.7176 1.18439C2.09552 0.813927 2.54109 0.519528 3.0301 0.317199C3.53717 0.106563 4.08102 -0.00125279 4.6301 1.09826e-05C5.40041 1.09826e-05 6.15197 0.210948 6.8051 0.609386C6.96135 0.704698 7.10979 0.809386 7.25041 0.923449C7.39103 0.809386 7.53947 0.704698 7.69572 0.609386C8.34885 0.210948 9.10041 1.09826e-05 9.87072 1.09826e-05C10.4254 1.09826e-05 10.9629 0.106261 11.4707 0.317199C11.9613 0.520324 12.4035 0.812511 12.7832 1.18439C13.1613 1.55333 13.4634 1.99288 13.6723 2.47814C13.8895 2.98282 14.0004 3.51876 14.0004 4.07032C14.0004 4.59064 13.8941 5.13282 13.6832 5.68439C13.5066 6.14532 13.2535 6.62345 12.9301 7.10626C12.4176 7.87032 11.7129 8.6672 10.8379 9.47501C9.38791 10.8141 7.95197 11.7391 7.89103 11.7766L7.52072 12.0141C7.35666 12.1188 7.14572 12.1188 6.98166 12.0141L6.61135 11.7766C6.55041 11.7375 5.11604 10.8141 3.66447 9.47501C2.78947 8.6672 2.08478 7.87032 1.57228 7.10626C1.24885 6.62345 0.994158 6.14532 0.819157 5.68439C0.60822 5.13282 0.501969 4.59064 0.501969 4.07032C0.500407 3.51876 0.611344 2.98282 0.828532 2.47814Z" fill="white"/>
</g>
<defs>
<clipPath id="clip0_1119_4">
<rect width="14" height="13" fill="white"/>
</clipPath>
</defs>
</svg>
