<svg width="14" height="13" viewBox="0 0 14 13" fill="none" xmlns="http://www.w3.org/2000/svg">
<path id="Icon" d="M0.828125 2.47814C1.03756 1.99319 1.33955 1.55374 1.71719 1.18439C2.09511 0.813927 2.54068 0.519528 3.02969 0.317199C3.53676 0.106563 4.08061 -0.00125279 4.62969 1.09826e-05C5.4 1.09826e-05 6.15156 0.210948 6.80469 0.609386C6.96094 0.704698 7.10938 0.809386 7.25 0.923449C7.39062 0.809386 7.53906 0.704698 7.69531 0.609386C8.34844 0.210948 9.1 1.09826e-05 9.87031 1.09826e-05C10.425 1.09826e-05 10.9625 0.106261 11.4703 0.317199C11.9609 0.520324 12.4031 0.812511 12.7828 1.18439C13.1609 1.55333 13.463 1.99288 13.6719 2.47814C13.8891 2.98282 14 3.51876 14 4.07032C14 4.59064 13.8937 5.13282 13.6828 5.68439C13.5062 6.14532 13.2531 6.62345 12.9297 7.10626C12.4172 7.87032 11.7125 8.6672 10.8375 9.47501C9.3875 10.8141 7.95156 11.7391 7.89062 11.7766L7.52031 12.0141C7.35625 12.1188 7.14531 12.1188 6.98125 12.0141L6.61094 11.7766C6.55 11.7375 5.11563 10.8141 3.66406 9.47501C2.78906 8.6672 2.08437 7.87032 1.57187 7.10626C1.24844 6.62345 0.993751 6.14532 0.81875 5.68439C0.607813 5.13282 0.501562 4.59064 0.501562 4.07032C0.5 3.51876 0.610937 2.98282 0.828125 2.47814ZM7.25 10.7781C7.25 10.7781 12.8125 7.21407 12.8125 4.07032C12.8125 2.47814 11.4953 1.18751 9.87031 1.18751C8.72813 1.18751 7.7375 1.82501 7.25 2.75626C6.7625 1.82501 5.77187 1.18751 4.62969 1.18751C3.00469 1.18751 1.6875 2.47814 1.6875 4.07032C1.6875 7.21407 7.25 10.7781 7.25 10.7781Z" fill="white"/>
</svg>
